<svg xmlns="http://www.w3.org/2000/svg" width="2778.667" height="2778.667" version="1.0" viewBox="0 0 2084 2084"><path d="M1014.7 4.5c-.1.2-7.6.5-16.7.9s-19.6.9-23.5 1.1c-12.4.8-30.9 2.4-36.5 3-1.9.2-6 .7-9 1-3 .3-7.1.8-9 1-1.9.2-5.7.7-8.5 1-2.7.3-6.3.7-8 1-6.5.8-18.4 2.6-20.2 2.9-3.3.6-10.3 1.8-12.6 2.1-1.2.1-4.9.7-8.2 1.3-3.3.6-7.6 1.4-9.5 1.7-1.9.3-5.3 1-7.5 1.5s-5.6 1.2-7.5 1.5c-2.7.5-33.4 7.2-41 9-31.7 7.4-82.4 23-116.5 35.8-91.7 34.3-183.5 84.5-258.3 141.1-6.4 4.8-14.4 10.8-17.7 13.3-3.3 2.5-6.2 4.8-6.5 5.2-.3.3-4.9 4.1-10.2 8.3-15 12-41 34.7-55.7 48.7-21 20-42.4 41.7-57.1 58-4.7 5.2-9.2 10.2-10 11.1-4 4.3-13.2 15-15.2 17.6-1.3 1.6-2.8 3.5-3.5 4.2-.7.7-2.9 3.4-5 6s-4 4.9-4.3 5.2c-1.8 1.6-21 26.7-32 41.6-22.6 30.5-44.9 64.9-65.6 100.9-9.5 16.6-33.2 62.6-40.8 79.5-5.2 11.3-19.6 45-19.6 45.7 0 .3-.7 1.9-1.5 3.6-6.6 14.6-24.4 66.6-33.4 98.2-6.9 24.3-16.4 63.3-19.5 80.5-.2 1.4-1.4 7.2-2.5 13-3.2 16.3-6.1 34.8-7.6 46.8-.3 2.4-.7 5.3-1 6.5-.5 2.4-1.4 9.7-2 16.7-.2 2.5-.6 6.3-.9 8.5-.3 2.2-.8 6.7-1.1 10-.3 3.3-.8 7.8-1 10-.2 2.2-.7 8.3-1.1 13.5-.3 5.2-.8 11.5-1 14-2.3 25.6-2.2 102.1.1 131.5.2 3.3.7 9.6 1 14 .3 4.4.8 9.8 1 12 .2 2.2.7 6.7 1 10 1.7 17.4 4.2 38.5 5 41.5.2.8.6 4.2 1 7.5.3 3.3.8 6.7 1 7.5.2.8.6 3.3 1 5.5.7 4.6 5.3 31 5.9 34 .3 1.1 1.4 6.5 2.5 12 3.4 17.1 12.9 56 17.1 70.5 20 68.2 38.8 117.2 67 174.5 25.7 52.1 46.9 88.1 82.7 140 10.6 15.4 36.1 48.9 50.4 66 5.5 6.6 11.5 13.6 22 25.7 15.5 17.7 57.1 60 75.4 76.7 16.2 14.7 17.5 15.8 22.2 19.8 2.3 1.9 5.7 4.9 7.5 6.5 7.7 7.1 44.8 36.3 60.4 47.6 9.3 6.7 17.4 12.6 17.9 13 .6.5 6.2 4.3 12.5 8.5s12 8 12.5 8.5c2.5 2 44.2 27.6 55.5 33.9 61.1 34.6 120.8 61.3 185.6 82.9 16.8 5.7 46.3 14.7 51.9 15.9 1.1.2 8.8 2.2 17 4.4 8.3 2.2 16.1 4.3 17.5 4.5 1.4.3 3.6.8 5 1.1 1.4.3 3.4.8 4.5 1 1.1.3 2.9.7 4 1 3 .7 35.3 7.3 38.4 7.9 23.4 4 33.4 5.6 37.1 6.1 2.5.3 5.6.8 7 1 5.9.9 15.3 2.1 24 3 2.5.3 6.1.7 8 1 3.4.4 6.3.7 20.5 2.1 7.7.7 9.2.8 27.5 1.9 6.9.4 14.5.9 17 1.1 6 .4 92.4.4 97.2 0 2.1-.2 9.3-.7 16-1.1 6.8-.4 13.9-.8 15.8-1 1.9-.2 7.1-.6 11.5-1 4.4-.3 9.6-.7 11.5-1 1.9-.2 6-.7 9-1 5.1-.6 7.4-.8 17-2 4.1-.5 25.3-3.4 29.3-4.1 1.5-.2 4.2-.6 6-.9 1.7-.3 4.3-.7 5.7-1 1.4-.3 4.1-.7 6-1 1.9-.3 6-1 9-1.6 3-.6 6.9-1.3 8.5-1.5 1.7-.3 8.4-1.7 15-3.1 6.6-1.4 12.7-2.6 13.5-2.8.8-.2 7.4-1.7 14.5-3.3 104.2-24.2 205.9-65.9 299.9-122.9 19.9-12 32-19.9 53.4-34.8 16.2-11.3 46.7-33.7 48.2-35.4.3-.3 2.3-2 4.5-3.6s4.9-3.7 6-4.6c26.3-21.9 38.7-32.5 45.5-38.9.9-.8 7.4-6.9 14.5-13.5 25.6-24 57-56.6 75-77.9 2.8-3.3 6.8-8.1 9.1-10.7 17.5-19.9 49.7-62.8 69.6-92.4 27.5-41 59.8-98.3 76.8-136 1.3-2.8 3.7-8.2 5.5-12 1.8-3.9 6.3-14.2 10-23s7.3-17.4 8-19c.8-1.7 2.5-6.2 4-10 1.4-3.9 4.2-11.3 6.2-16.5 6.7-17.9 14.1-40.3 22.4-67.5 1-3.5 4.9-17.1 5.5-19.4 5.9-23.5 10.5-42.1 10.8-43.9.3-1.2.7-3 1-4 .3-.9.7-2.8 1-4.2.2-1.4 2-10.6 3.9-20.5 2-9.9 3.9-20 4.2-22.5.4-2.5.9-5.4 1.1-6.5 1.3-6.6 3.2-18.5 3.9-25 .3-2.8 1-7.9 1.6-11.5.6-3.5 1.2-8.5 1.4-11 .2-2.5.6-6.3.9-8.5.2-2.2.7-6.9 1.1-10.5.4-3.6.8-7.9 1-9.5.2-1.7.6-7.5 1-13s.8-11.6 1-13.5c2.5-25.9 2.5-99.5 0-135.5-.2-3.3-.7-9.6-1-14-.6-9.2-1.3-17.2-2-23-.2-2.2-.7-6.7-1-10-.4-3.3-.8-7.1-1-8.5-.2-1.4-.7-5.2-1.1-8.5-.3-3.3-.8-6.9-1-7.9-.2-1.1-.8-5.6-1.4-10-1.3-9.3-1.1-8.3-4.5-28.1-1.4-8.3-3.7-20.4-5.1-27-1.3-6.6-2.6-12.9-2.8-14-9.8-48.7-35.8-132.7-53.5-172.7-1.2-2.6-2.1-5-2.1-5.3 0-.3-1-2.7-2.1-5.3-1.2-2.6-2.7-6.1-3.4-7.7-9.7-22.6-27.2-59.1-37-77-30.4-56-61.8-104.4-97.4-150-4.7-6.1-9.3-11.9-10.3-13-.9-1.1-5.1-6.3-9.4-11.5-29.5-35.8-68-76-103.3-108-5.2-4.7-9.9-9-10.5-9.5-1.4-1.3-22.4-19.1-25.1-21.3-1.2-1-4.5-3.7-7.5-6.2-17.6-14.6-66.8-51-69-51-.4 0-1-.4-1.2-.8-.3-.7-14.7-10.4-29-19.5-16.4-10.4-39-23.7-56.8-33.4-3-1.7-8.1-4.4-11.2-6.1-3.1-1.8-13.4-7-23-11.7-9.5-4.7-18.1-9-19.1-9.6-2.5-1.4-46.6-20.9-47.2-20.9-.3 0-2.4-.8-4.8-1.9-2.3-1-8-3.3-12.7-5.1-4.7-1.8-9.8-3.8-11.5-4.5-10.8-4.6-62.6-22-77-25.8-1.1-.3-6.9-1.9-13-3.7-18.9-5.4-66.1-16.5-83-19.5-1.6-.2-9.3-1.6-17-2.9-7.7-1.4-15.8-2.7-18-3-2.2-.4-5.1-.8-6.5-1.1-1.4-.2-4.7-.7-7.5-1-2.7-.3-5.7-.8-6.5-1-.8-.2-4.2-.6-7.5-.9-3.3-.3-6.9-.8-8-1-1.1-.2-5.6-.7-10-1.1-4.4-.4-8.8-.9-9.7-1-.9-.2-5.4-.6-10-1-4.6-.3-10.3-.8-12.8-1-19-1.8-43.4-2.7-77.3-2.9-16.9-.1-30.8-.2-31-.1zm75.8 160.8c2.8.3 9.5.8 15 1.2 5.5.4 11.6.8 13.5 1 6.5.7 15.5 1.6 19.5 2.1 2.2.2 6.3.7 9 .9 4.5.5 15.9 2 22.5 3 1.4.3 4.3.7 6.5 1 2.2.3 6.3 1 9 1.5 2.8.5 6.6 1.2 8.5 1.4 5.5.9 19.7 3.7 40 8 23.3 5 53.1 13.3 83.5 23.2 81 26.6 159.2 66.2 230.9 116.8 4.2 3 27.8 20.4 29.6 21.9.8.6 4.7 3.7 8.5 6.7 7.7 6.1 9.7 7.6 12.8 10.3 1.2 1.1 3.9 3.3 6 5 26.8 22 62.7 56.7 89.2 86.3 3.9 4.3 7.5 8.2 8 8.8 1.1 1.1 16.1 18.9 18.2 21.6.7.8 3.7 4.6 6.8 8.4 23.3 28.7 59.6 81.6 73.5 107.1 1.2 2.2 2.9 5.3 3.9 7 2 3.4 4.2 7.2 9.1 16 5.1 9.2 25.3 49.9 29.5 59.5 2 4.7 4.3 9.8 5 11.5 11.4 25.9 25.6 65 35 96.5 6.8 22.9 19 72.5 21 85.5.3 2 1.1 6.6 2 11.5.3 1.4.7 4.1 1 6 .3 1.9.7 4.6 1 6 .7 3.7 1.3 7.5 2.5 16.6.6 4.4 1.2 8.9 1.4 10 1 5.4 4.2 36.6 5.1 49.9 1.6 24.8 1.9 35.1 1.9 65s-.5 47-1.8 62.5c-.3 3-.8 9.1-1.1 13.5-.5 6.9-2.5 24.8-4 36.7-.3 2.1-.7 5.7-1 8-.3 2.4-1 6.8-1.5 9.8-.5 3-1.2 7.3-1.5 9.5-.3 2.3-.7 5.2-1 6.5-.3 1.4-.8 4.1-1.1 6-.3 1.9-1.9 10.2-3.6 18.5-1.6 8.2-3.2 16.1-3.4 17.5-.3 1.4-.7 3.3-1 4.2-.3.9-.7 2.5-.9 3.5-1.3 6.2-4.9 20.9-7.1 28.7-1.4 5-2.8 10.2-3.1 11.5-.2 1.4-.6 2.8-.9 3.3-.3.4-.7 1.7-.9 2.8-2.3 12.1-24.7 75.6-34 96.5-.7 1.6-3.7 8.4-6.5 15-5.9 13.4-28 58.1-32.9 66.3-1.7 2.9-3.1 5.4-3.1 5.6 0 .7-15.7 27.2-23.5 39.6-19.2 30.7-50.2 73.4-71.4 98-29.6 34.5-60.8 66.3-92.9 95-15.1 13.4-32.8 27.8-52.2 42.3-8.5 6.4-16.6 12.5-18 13.5-4.2 3.2-40 27.2-40.6 27.2-.3 0-2.4 1.3-4.7 2.9-7.6 5.1-25.4 15.6-47.9 28-7.2 3.9-47.4 24.1-48.2 24.1-.3 0-3.8 1.5-7.8 3.4-13.6 6.3-18.3 8.3-30.3 13-6.6 2.6-13.3 5.4-15 6.1-26 11.3-104.1 34.3-136.5 40.1-1.4.2-5.6 1.1-9.5 1.8-3.8.8-8.8 1.8-11 2.2-2.2.4-4.2.8-4.5.9-.3.1-3.4.5-7 1s-6.7.9-7 1c-5.6 1.3-8 1.7-18.5 2.9-2.2.3-5.6.8-7.5 1.1-5.3.8-10.8 1.4-18 2-3.6.4-7.2.8-8 1-.8.2-6 .7-11.4 1.1-5.4.3-11.1.8-12.5.9-18.9 2.4-104.8 2.4-125.2 0-1.9-.2-7.5-.6-12.5-1-5.1-.3-10-.7-11-.9-1.1-.2-5.4-.7-9.7-1.1-4.3-.3-8.8-.8-10-1-2.6-.4-11.2-1.6-14.7-2-8.9-1.2-25.6-3.8-32-5-4.1-.8-8.8-1.7-10.4-1.9-1.6-.3-5.2-1-8-1.5-4.9-1-8-1.6-13.6-2.7-2.1-.4-42.9-10.4-48-11.8-20.2-5.5-51.2-15.5-73.5-23.8-8.8-3.3-17.3-6.5-19-7.3-1.6-.7-6.6-2.7-11-4.5-4.4-1.8-11.3-4.8-15.3-6.6-4.1-1.9-7.5-3.4-7.7-3.4-1.3 0-52.4-25-55-27-.5-.4-4.4-2.5-8.5-4.7s-9.1-5-11-6.2c-1.9-1.1-4.2-2.4-5-2.8-9.5-4.4-71.7-45.1-82.5-54-.5-.5-4.8-3.7-9.5-7.2-13.8-10.5-33.5-26.5-50-41-14.5-12.7-51.1-48.5-64.5-63.1-19-20.7-37.4-42.5-51.5-61-3.5-4.7-6.8-9-7.3-9.5-7.2-8.8-41.7-59.6-41.7-61.5 0-.5-.4-1-1-1-.5 0-1-.4-1-1 0-.5-2.9-5.7-6.5-11.5-3.6-5.7-6.5-10.7-6.5-11 0-.2-1.3-2.6-2.9-5.2-13.9-22.7-40.2-77.5-52.8-109.8-3-7.7-5.8-14.9-6.3-16-4-9-14.2-40.1-23.5-71.5-3.3-11.1-12.3-48.3-13-53.7-.2-1.1-.6-3-1-4.2-.3-1.1-.8-3.3-1.1-4.8-.5-2.8-3.3-18.1-4-21.8-.2-1-.6-3.5-.9-5.5-.3-2-.7-4.7-1-6-.2-1.3-.7-4.6-1-7.3-.3-2.8-.8-5.3-1-5.6-.1-.3-.6-3.1-.9-6.1-.3-3-.8-6.9-1.1-8.5-.5-3.2-1.2-9.1-2-17-.3-2.8-.7-6.8-1-9-.2-2.2-.7-7.4-1-11.5-.3-4.1-.8-10.2-1-13.5-2.6-32.6-2.6-88.4 0-123.5.9-11.8 1.6-20.6 2-23.5.2-1.7.7-6.2 1-10 .4-3.9.8-7.7 1-8.5.2-.8.6-4.4 1-8 .4-3.6.9-7.2 1-8.1.2-.9.6-4 1-6.9.4-2.9.8-6.1 1-7.1.2-.9.7-3.9 1.1-6.6.8-5.6.7-5.2 2.9-16.8 1.9-10.1 4.5-23.2 5-25.5.2-.8 1.1-4.9 2-9 .9-4.1 1.8-8.2 2-9 1.2-5.3 7.1-28.1 9.5-36.5 25.2-88.7 62.4-169.7 113.9-247.5 5.3-8 9.9-15 10.4-15.5.4-.6 6-8.2 12.4-17 9.7-13.3 33-43.1 36.8-47.1.5-.6 3.5-3.9 6.5-7.4 16.4-19 25.3-28.5 45.4-48.5 12.1-12.1 26.1-25.6 31.1-30 4.9-4.4 9.9-8.9 11.1-10 4.9-4.6 31.4-26.3 43.4-35.6 26.3-20.3 69.2-49.1 94-63.2 37.3-21.1 70.7-37.7 102.1-50.7 6.8-2.8 13.3-5.5 14.4-6 18.1-8 85.9-30.2 102.1-33.4 1-.2 7.4-1.8 14.1-3.5 11.3-2.9 23.3-5.6 29.3-6.7 1.4-.3 8.1-1.6 15-2.9 10.6-2.1 18.9-3.5 35-6 4.1-.6 10.3-1.4 14.5-1.9 15.9-2 21-2.5 27.5-3.1 3-.3 8-.7 11-1 12-1.1 17-1.5 30-2.1 7.4-.3 13.6-.7 13.8-.8.4-.5 74.5.3 79.7.7z"/><path d="M1321.8 500.5c-.2.1-5.2.5-11.3.9-6 .3-11.9.8-13 1-1.1.2-4.7.7-8 1-3.3.4-10.9 1.8-17 3.2-53.7 12-98.2 39.6-131.5 81.7-.8 1.1-1.9 2.4-2.5 3.1-1.2 1.3-6.9 9.9-11.8 17.7-10.9 17.4-23.1 47.8-27.2 67.4-1.6 8.2-2.5 13.1-3.1 17.2-.3 2.6-.8 5.7-1 6.8-2.3 11.9-2.2 59.3.1 78.3.2 1.5.7 6.7 1.1 11.7.3 4.9.8 9.7 1 10.5.1.8.3 1.8.3 2.1.1.3 104.1.6 231.1.6h231l.1-2.6c0-2.7.4-7.5 1.3-17.6 2.1-23.6 2.8-64.2 1.3-77.5-.9-7.5-2.4-17.5-3.1-20.6-.2-1.2-.7-3.8-1-5.9-.4-2-.8-4.1-1.1-4.5-.2-.3-.6-2-.9-3.6-.3-1.6-1.6-6.5-3-10.9-17.8-59.2-58.4-107.1-114.1-134.5-13-6.3-36.7-15.2-44.2-16.5-1.8-.3-4.3-.9-5.7-1.5-1.5-.5-2.6-.7-2.6-.5 0 .2-1.1 0-2.5-.5s-4.6-1.2-7.2-1.6c-2.7-.3-5-.7-5.3-.9-.3-.2-3-.6-6-1s-6.6-.9-8-1.1c-1.4-.2-9.2-.6-17.5-.9-8.2-.4-15.8-.8-16.7-.9-.9-.2-1.8-.3-2-.1zM691.3 1053.5c0 487.9.1 529.5 1.6 529.6h335.6l8-.1V524H691.3v529.5z"/></svg>