<?xml version="1.0" standalone="no"?>
<!DOCTYPE svg PUBLIC "-//W3C//DTD SVG 20010904//EN"
 "http://www.w3.org/TR/2001/REC-SVG-20010904/DTD/svg10.dtd">
<svg version="1.0" xmlns="http://www.w3.org/2000/svg"
 width="2084.000000pt" height="2084.000000pt" viewBox="0 0 2084.000000 2084.000000"
 preserveAspectRatio="xMidYMid meet">
<metadata>
Created by potrace 1.11, written by Peter Selinger 2001-2013
</metadata>
<g transform="translate(0.000000,2084.000000) scale(0.100000,-0.100000)"
fill="#000000" stroke="none">
<path d="M10147 20795 c-1 -2 -76 -5 -167 -9 -91 -4 -196 -9 -235 -11 -124 -8
-309 -24 -365 -30 -19 -2 -60 -7 -90 -10 -30 -3 -71 -8 -90 -10 -19 -2 -57 -7
-85 -10 -27 -3 -63 -7 -80 -10 -65 -8 -184 -26 -202 -29 -33 -6 -103 -18 -126
-21 -12 -1 -49 -7 -82 -13 -33 -6 -76 -14 -95 -17 -19 -3 -53 -10 -75 -15 -22
-5 -56 -12 -75 -15 -27 -5 -334 -72 -410 -90 -317 -74 -824 -230 -1165 -358
-917 -343 -1835 -845 -2583 -1411 -64 -48 -144 -108 -177 -133 -33 -25 -62
-48 -65 -52 -3 -3 -49 -41 -102 -83 -150 -120 -410 -347 -557 -487 -210 -200
-424 -417 -571 -580 -47 -52 -92 -102 -100 -111 -40 -43 -132 -150 -152 -176
-13 -16 -28 -35 -35 -42 -7 -7 -29 -34 -50 -60 -21 -26 -40 -49 -43 -52 -18
-16 -210 -267 -320 -416 -226 -305 -449 -649 -656 -1009 -95 -166 -332 -626
-408 -795 -52 -113 -196 -450 -196 -457 0 -3 -7 -19 -15 -36 -66 -146 -244
-666 -334 -982 -69 -243 -164 -633 -195 -805 -2 -14 -14 -72 -25 -130 -32
-163 -61 -348 -76 -468 -3 -24 -7 -53 -10 -65 -5 -24 -14 -97 -20 -167 -2 -25
-6 -63 -9 -85 -3 -22 -8 -67 -11 -100 -3 -33 -8 -78 -10 -100 -2 -22 -7 -83
-11 -135 -3 -52 -8 -115 -10 -140 -23 -256 -22 -1021 1 -1315 2 -33 7 -96 10
-140 3 -44 8 -98 10 -120 2 -22 7 -67 10 -100 17 -174 42 -385 50 -415 2 -8 6
-42 10 -75 3 -33 8 -67 10 -75 2 -8 6 -33 10 -55 7 -46 53 -310 59 -340 3 -11
14 -65 25 -120 34 -171 129 -560 171 -705 200 -682 388 -1172 670 -1745 257
-521 469 -881 827 -1400 106 -154 361 -489 504 -660 55 -66 115 -136 220 -257
155 -177 571 -600 754 -767 162 -147 175 -158 222 -198 23 -19 57 -49 75 -65
77 -71 448 -363 604 -476 93 -67 174 -126 179 -130 6 -5 62 -43 125 -85 63
-42 120 -80 125 -85 25 -20 442 -276 555 -339 611 -346 1208 -613 1856 -829
168 -57 463 -147 519 -159 11 -2 88 -22 170 -44 83 -22 161 -43 175 -45 14 -3
36 -8 50 -11 14 -3 34 -8 45 -10 11 -3 29 -7 40 -10 30 -7 353 -73 384 -79
234 -40 334 -56 371 -61 25 -3 56 -8 70 -10 59 -9 153 -21 240 -30 25 -3 61
-7 80 -10 34 -4 63 -7 205 -21 77 -7 92 -8 275 -19 69 -4 145 -9 170 -11 60
-4 924 -4 972 0 21 2 93 7 160 11 68 4 139 8 158 10 19 2 71 6 115 10 44 3 96
7 115 10 19 2 60 7 90 10 51 6 74 8 170 20 41 5 253 34 293 41 15 2 42 6 60 9
17 3 43 7 57 10 14 3 41 7 60 10 19 3 60 10 90 16 30 6 69 13 85 15 17 3 84
17 150 31 66 14 127 26 135 28 8 2 74 17 145 33 1042 242 2059 659 2999 1229
199 120 320 199 534 348 162 113 467 337 482 354 3 3 23 20 45 36 22 16 49 37
60 46 263 219 387 325 455 389 9 8 74 69 145 135 256 240 570 566 750 779 28
33 68 81 91 107 175 199 497 628 696 924 275 410 598 983 768 1360 13 28 37
82 55 120 18 39 63 142 100 230 37 88 73 174 80 190 8 17 25 62 40 100 14 39
42 113 62 165 67 179 141 403 224 675 10 35 49 171 55 194 59 235 105 421 108
439 3 12 7 30 10 40 3 9 7 28 10 42 2 14 20 106 39 205 20 99 39 200 42 225 4
25 9 54 11 65 13 66 32 185 39 250 3 28 10 79 16 115 6 35 12 85 14 110 2 25
6 63 9 85 2 22 7 69 11 105 4 36 8 79 10 95 2 17 6 75 10 130 4 55 8 116 10
135 25 259 25 995 0 1355 -2 33 -7 96 -10 140 -6 92 -13 172 -20 230 -2 22 -7
67 -10 100 -4 33 -8 71 -10 85 -2 14 -7 52 -11 85 -3 33 -8 69 -10 79 -2 11
-8 56 -14 100 -13 93 -11 83 -45 281 -14 83 -37 204 -51 270 -13 66 -26 129
-28 140 -98 487 -358 1327 -535 1727 -12 26 -21 50 -21 53 0 3 -10 27 -21 53
-12 26 -27 61 -34 77 -97 226 -272 591 -370 770 -304 560 -618 1044 -974 1500
-47 61 -93 119 -103 130 -9 11 -51 63 -94 115 -295 358 -680 760 -1033 1080
-52 47 -99 90 -105 95 -14 13 -224 191 -251 213 -12 10 -45 37 -75 62 -176
146 -668 510 -690 510 -4 0 -10 4 -12 8 -3 7 -147 104 -290 195 -164 104 -390
237 -568 334 -30 17 -81 44 -112 61 -31 18 -134 70 -230 117 -95 47 -181 90
-191 96 -25 14 -466 209 -472 209 -3 0 -24 8 -48 19 -23 10 -80 33 -127 51
-47 18 -98 38 -115 45 -108 46 -626 220 -770 258 -11 3 -69 19 -130 37 -189
54 -661 165 -830 195 -16 2 -93 16 -170 29 -77 14 -158 27 -180 30 -22 4 -51
8 -65 11 -14 2 -47 7 -75 10 -27 3 -57 8 -65 10 -8 2 -42 6 -75 9 -33 3 -69 8
-80 10 -11 2 -56 7 -100 11 -44 4 -88 9 -97 10 -9 2 -54 6 -100 10 -46 3 -103
8 -128 10 -190 18 -434 27 -773 29 -169 1 -308 2 -310 1z m758 -1608 c28 -3
95 -8 150 -12 55 -4 116 -8 135 -10 65 -7 155 -16 195 -21 22 -2 63 -7 90 -9
45 -5 159 -20 225 -30 14 -3 43 -7 65 -10 22 -3 63 -10 90 -15 28 -5 66 -12
85 -14 55 -9 197 -37 400 -80 233 -50 531 -133 835 -232 810 -266 1592 -662
2309 -1168 42 -30 278 -204 296 -219 8 -6 47 -37 85 -67 77 -61 97 -76 128
-103 12 -11 39 -33 60 -50 268 -220 627 -567 892 -863 39 -43 75 -82 80 -88
11 -11 161 -189 182 -216 7 -8 37 -46 68 -84 233 -287 596 -816 735 -1071 12
-22 29 -53 39 -70 20 -34 42 -72 91 -160 51 -92 253 -499 295 -595 20 -47 43
-98 50 -115 114 -259 256 -650 350 -965 68 -229 190 -725 210 -855 3 -20 11
-66 20 -115 3 -14 7 -41 10 -60 3 -19 7 -46 10 -60 7 -37 13 -75 25 -166 6
-44 12 -89 14 -100 10 -54 42 -366 51 -499 16 -248 19 -351 19 -650 0 -299 -5
-470 -18 -625 -3 -30 -8 -91 -11 -135 -5 -69 -25 -248 -40 -367 -3 -21 -7 -57
-10 -80 -3 -24 -10 -68 -15 -98 -5 -30 -12 -73 -15 -95 -3 -23 -7 -52 -10 -65
-3 -14 -8 -41 -11 -60 -3 -19 -19 -102 -36 -185 -16 -82 -32 -161 -34 -175 -3
-14 -7 -33 -10 -42 -3 -9 -7 -25 -9 -35 -13 -62 -49 -209 -71 -287 -14 -50
-28 -102 -31 -115 -2 -14 -6 -28 -9 -33 -3 -4 -7 -17 -9 -28 -23 -121 -247
-756 -340 -965 -7 -16 -37 -84 -65 -150 -59 -134 -280 -581 -329 -663 -17 -29
-31 -54 -31 -56 0 -7 -157 -272 -235 -396 -192 -307 -502 -734 -714 -980 -296
-345 -608 -663 -929 -950 -151 -134 -328 -278 -522 -423 -85 -64 -166 -125
-180 -135 -42 -32 -400 -272 -406 -272 -3 0 -24 -13 -47 -29 -76 -51 -254
-156 -479 -280 -72 -39 -474 -241 -482 -241 -3 0 -38 -15 -78 -34 -136 -63
-183 -83 -303 -130 -66 -26 -133 -54 -150 -61 -260 -113 -1041 -343 -1365
-401 -14 -2 -56 -11 -95 -18 -38 -8 -88 -18 -110 -22 -22 -4 -42 -8 -45 -9 -3
-1 -34 -5 -70 -10 -36 -5 -67 -9 -70 -10 -56 -13 -80 -17 -185 -29 -22 -3 -56
-8 -75 -11 -53 -8 -108 -14 -180 -20 -36 -4 -72 -8 -80 -10 -8 -2 -60 -7 -114
-11 -54 -3 -111 -8 -125 -9 -189 -24 -1048 -24 -1252 0 -19 2 -75 6 -125 10
-51 3 -100 7 -110 9 -11 2 -54 7 -97 11 -43 3 -88 8 -100 10 -26 4 -112 16
-147 20 -89 12 -256 38 -320 50 -41 8 -88 17 -104 19 -16 3 -52 10 -80 15 -49
10 -80 16 -136 27 -21 4 -429 104 -480 118 -202 55 -512 155 -735 238 -88 33
-173 65 -190 73 -16 7 -66 27 -110 45 -44 18 -113 48 -153 66 -41 19 -75 34
-77 34 -13 0 -524 250 -550 270 -5 4 -44 25 -85 47 -41 22 -91 50 -110 62 -19
11 -42 24 -50 28 -95 44 -717 451 -825 540 -5 5 -48 37 -95 72 -138 105 -335
265 -500 410 -145 127 -511 485 -645 631 -190 207 -374 425 -515 610 -35 47
-68 90 -73 95 -72 88 -417 596 -417 615 0 5 -4 10 -10 10 -5 0 -10 4 -10 10 0
5 -29 57 -65 115 -36 57 -65 107 -65 110 0 2 -13 26 -29 52 -139 227 -402 775
-528 1098 -30 77 -58 149 -63 160 -40 90 -142 401 -235 715 -33 111 -123 483
-130 537 -2 11 -6 30 -10 42 -3 11 -8 33 -11 48 -5 28 -33 181 -40 218 -2 10
-6 35 -9 55 -3 20 -7 47 -10 60 -2 13 -7 46 -10 73 -3 28 -8 53 -10 56 -1 3
-6 31 -9 61 -3 30 -8 69 -11 85 -5 32 -12 91 -20 170 -3 28 -7 68 -10 90 -2
22 -7 74 -10 115 -3 41 -8 102 -10 135 -26 326 -26 884 0 1235 9 118 16 206
20 235 2 17 7 62 10 100 4 39 8 77 10 85 2 8 6 44 10 80 4 36 9 72 10 81 2 9
6 40 10 69 4 29 8 61 10 71 2 9 7 39 11 66 8 56 7 52 29 168 19 101 45 232 50
255 2 8 11 49 20 90 9 41 18 82 20 90 12 53 71 281 95 365 252 887 624 1697
1139 2475 53 80 99 150 104 155 4 6 60 82 124 170 97 133 330 431 368 471 5 6
35 39 65 74 164 190 253 285 454 485 121 121 261 256 311 300 49 44 99 89 111
100 49 46 314 263 434 356 263 203 692 491 940 632 373 211 707 377 1021 507
68 28 133 55 144 60 181 80 859 302 1021 334 10 2 74 18 141 35 113 29 233 56
293 67 14 3 81 16 150 29 106 21 189 35 350 60 41 6 103 14 145 19 159 20 210
25 275 31 30 3 80 7 110 10 120 11 170 15 300 21 74 3 136 7 138 8 4 5 745 -3
797 -7z"/>
<path d="M13218 15835 c-2 -1 -52 -5 -113 -9 -60 -3 -119 -8 -130 -10 -11 -2
-47 -7 -80 -10 -33 -4 -109 -18 -170 -32 -537 -120 -982 -396 -1315 -817 -8
-11 -19 -24 -25 -31 -12 -13 -69 -99 -118 -177 -109 -174 -231 -478 -272 -674
-16 -82 -25 -131 -31 -172 -3 -26 -8 -57 -10 -68 -23 -119 -22 -593 1 -783 2
-15 7 -67 11 -117 3 -49 8 -97 10 -105 1 -8 3 -18 3 -21 1 -3 1041 -6 2311 -6
l2310 0 1 26 c0 27 4 75 13 176 21 236 28 642 13 775 -9 75 -24 175 -31 206
-2 12 -7 38 -10 59 -4 20 -8 41 -11 45 -2 3 -6 20 -9 36 -3 16 -16 65 -30 109
-178 592 -584 1071 -1141 1345 -130 63 -367 152 -442 165 -18 3 -43 9 -57 15
-15 5 -26 7 -26 5 0 -2 -11 0 -25 5 -14 5 -46 12 -72 16 -27 3 -50 7 -53 9 -3
2 -30 6 -60 10 -30 4 -66 9 -80 11 -14 2 -92 6 -175 9 -82 4 -158 8 -167 9 -9
2 -18 3 -20 1z"/>
<path d="M6913 10305 c0 -4879 1 -5295 16 -5296 22 0 3257 0 3356 0 l80 1 0
5295 0 5295 -1726 0 -1726 0 0 -5295z"/>
</g>
</svg>
